<?xml version="1.0" encoding="UTF-8" standalone="no"?>
<svg
     version="1.1"
     width="512"
     height="512"
     id="svg556"
     sodipodi:docname="icon.svg"
     inkscape:version="1.4.3 (0d15f75042, 2025-12-25)"
     inkscape:export-filename="icon.png"
     inkscape:export-xdpi="96"
     inkscape:export-ydpi="96"
     xml:space="preserve"
     xmlns:inkscape="http://www.inkscape.org/namespaces/inkscape"
     xmlns:sodipodi="http://sodipodi.sourceforge.net/DTD/sodipodi-0.dtd"
     xmlns="http://www.w3.org/2000/svg"
     xmlns:svg="http://www.w3.org/2000/svg"><defs
         id="defs556" /><sodipodi:namedview
         id="namedview556"
         pagecolor="#ffffff"
         bordercolor="#000000"
         borderopacity="0.25"
         inkscape:showpageshadow="2"
         inkscape:pageopacity="0.0"
         inkscape:pagecheckerboard="0"
         inkscape:deskcolor="#d1d1d1"
         inkscape:zoom="1.1644258"
         inkscape:cx="213.40991"
         inkscape:cy="267.94322"
         inkscape:window-width="1920"
         inkscape:window-height="1080"
         inkscape:window-x="0"
         inkscape:window-y="0"
         inkscape:window-maximized="1"
         inkscape:current-layer="svg556"
         showgrid="false" /><path
         d="m 291.72458,10.990008 c 1.5203,0.87099 3.04648,1.73132 4.5725,2.592274 9.2667,5.246869 9.2667,5.246869 12.55984,7.325762 2.8874,1.821901 5.8538,3.496574 8.82557,5.176509 4.10138,2.328005 8.18732,4.676644 12.24287,7.083383 4.49849,2.666431 9.05882,5.215634 13.6296,7.756107 4.66957,2.596315 9.27583,5.233409 13.79799,8.07763 3.70744,2.288668 7.54448,4.364848 11.34413,6.495369 3.93582,2.211347 7.83242,4.472433 11.69297,6.811944 3.23638,1.958911 6.51814,3.830843 9.80866,5.697127 3.53458,2.012029 7.0327,4.086455 10.53669,6.150973 2.21174,1.303032 4.42907,2.596206 6.6489,3.885468 2.21649,1.288602 4.42193,2.592452 6.61669,3.917625 2.31818,1.394985 4.6579,2.743934 7.01291,4.075914 5.34516,3.029098 10.62881,6.164231 15.90579,9.309924 4.57392,2.730004 4.57392,2.730004 9.20646,5.358913 15.41834,8.5908 26.69278,23.65855 31.78342,40.41535 l 0.38924,1.26445 c 2.00255,6.92559 2.5325,13.88756 2.50986,21.06494 l 0.007,2.51464 c 0.006,2.27914 0.005,4.55822 0.003,6.83736 -10e-4,2.46751 0.004,4.93501 0.009,7.40252 0.008,4.82484 0.009,9.64966 0.008,14.4745 -10e-4,3.92462 -10e-6,7.84923 0.003,11.77385 l 0.001,1.69706 c 6.3e-4,1.13795 10e-4,2.27591 0.003,3.41386 0.007,10.65571 0.006,21.31139 0.002,31.9671 -0.003,9.73092 0.004,19.4618 0.0159,29.19272 0.0123,10.01115 0.0175,20.02229 0.0152,30.03346 -10e-4,5.6127 3.3e-4,11.22537 0.009,16.83807 0.008,4.77828 0.008,9.55651 6.3e-4,14.33479 -0.004,2.43387 -0.004,4.86765 0.003,7.30151 0.0561,19.13424 -2.33345,37.30927 -15.45821,52.27922 l -1.5155,1.78816 c -6.62687,7.64883 -14.33769,13.06424 -23.20797,17.83954 -2.51457,1.41252 -4.99802,2.86497 -7.46854,4.35292 -3.84198,2.31047 -7.74053,4.51752 -11.64114,6.72724 -3.28616,1.86716 -6.54205,3.77592 -9.77925,5.7265 -2.43733,1.45863 -4.90115,2.87055 -7.36423,4.28521 -3.61092,2.08058 -7.20923,4.17776 -10.77689,6.33151 -9.47318,5.7116 -19.06862,11.22019 -28.68061,16.69458 -8.93182,5.08711 -17.80674,10.2632 -26.64446,15.51157 -4.62344,2.74425 -9.26344,5.44986 -13.9636,8.06112 -6.46424,3.596 -12.80814,7.40212 -19.14527,11.21587 -4.46339,2.68437 -8.97292,5.27876 -13.51074,7.83525 l -1.77056,1.02641 c -15.53014,8.82084 -32.7371,11.85803 -50.19726,7.19962 -11.11685,-3.39988 -20.77515,-8.83825 -30.69292,-14.82836 -2.37619,-1.43133 -4.76676,-2.83763 -7.15993,-4.24039 l -1.30982,-0.76949 c -3.71962,-2.18293 -7.45331,-4.34134 -11.18843,-6.49768 -4.26486,-2.46297 -8.52367,-4.93623 -12.77991,-7.41403 l -1.89577,-1.10245 c -2.90218,-1.6905 -5.79616,-3.39219 -8.67312,-5.12519 -2.60361,-1.56528 -5.23649,-3.06523 -7.89447,-4.53594 -4.16757,-2.32407 -8.26896,-4.74242 -12.35431,-7.20704 -6.58908,-3.97397 -13.24725,-7.82683 -19.93676,-11.62922 -4.20952,-2.39273 -8.39037,-4.82234 -12.53399,-7.32699 -6.50473,-3.924 -13.1067,-7.68783 -19.717454,-11.43012 -4.520857,-2.57328 -8.995424,-5.2243 -13.47112,-7.87483 l -1.114185,-0.65979 c -2.429994,-1.43957 -4.858054,-2.88236 -7.285454,-4.32628 L 69.932721,412.0563 C 52.900875,401.91766 39.21366,388.3158 33.719624,368.81742 c -0.720974,-3.15279 -1.339828,-6.3119 -1.901805,-9.49727 l -0.336062,-1.81663 c -0.281486,-1.87321 -0.378675,-3.61924 -0.381191,-5.51112 l -0.0074,-2.09234 0.0019,-2.27825 -0.0057,-2.43643 c -0.0051,-2.22772 -0.0063,-4.45542 -0.0067,-6.68315 -0.0013,-2.40461 -0.0057,-4.80922 -0.01021,-7.21382 -0.0086,-5.25793 -0.01243,-10.51585 -0.01521,-15.77379 -0.0019,-3.28731 -0.0044,-6.57461 -0.0073,-9.86192 -0.0077,-9.11239 -0.01426,-18.22478 -0.01642,-27.33718 l -4.25e-4,-1.76682 -4.18e-4,-1.77094 c -2.79e-4,-1.18414 -5.64e-4,-2.36827 -6.34e-4,-3.5524 l -4.25e-4,-1.7799 c -0.0025,-9.50063 -0.01357,-19.00124 -0.02834,-28.50187 -0.01509,-9.76848 -0.02295,-19.53694 -0.02365,-29.30543 -5.77e-4,-5.47872 -0.0044,-10.95739 -0.01572,-16.43609 -0.0098,-4.6692 -0.013,-9.33834 -0.0078,-14.00754 0.0025,-2.37765 0.0019,-4.75521 -0.007,-7.13286 -0.03474,-9.74552 0.125043,-19.18019 2.137045,-28.74676 l 0.477505,-2.32212 c 2.266604,-10.19804 8.304511,-20.47083 15.370871,-28.06916 l 1.210911,-1.57546 c 1.45161,-1.74249 2.998735,-3.06673 4.771851,-4.47905 l 1.780464,-1.42706 1.7458,-1.38255 1.55264,-1.28362 c 1.815958,-1.40264 3.697103,-2.59047 5.658371,-3.78159 l 2.075142,-1.266309 c 1.75103,-1.043606 3.512501,-2.063347 5.285377,-3.069292 2.788838,-1.593586 5.556117,-3.22466 8.329374,-4.845098 5.001158,-2.920285 10.017226,-5.811173 15.055956,-8.666263 4.710019,-2.670741 9.345789,-5.442773 13.954309,-8.284142 2.99763,-1.842624 6.02883,-3.583841 9.13479,-5.239577 4.82868,-2.592553 9.58927,-5.308314 14.1942,-8.280436 2.76688,-1.784569 5.59247,-3.384125 8.49374,-4.939077 5.82702,-3.143956 11.51105,-6.523749 17.18063,-9.939986 3.70617,-2.232043 7.41661,-4.418805 11.23501,-6.455178 7.17405,-3.895104 14.24694,-7.983842 21.17492,-12.299465 8.37036,-5.157123 16.94418,-10.021705 25.54065,-14.792499 1.34885,-0.749472 2.69344,-1.50673 4.03142,-2.275389 4.29263,-2.4323495 8.67303,-4.2793534 13.33741,-5.8863314 l 2.07267,-0.7147686 c 18.65086,-5.8770417 38.16973,-2.6792855 54.9744,6.949519 z"
         fill="#242c34"
         id="path1"
         sodipodi:nodetypes="ccccccccccscccccccccccsssccsssccccccccccscccccccccccccccsccsccccccccccccscscsssccsccccccccccccccccccccccccccc"
         inkscape:label="bg"
         style="fill:#162d3b;stroke-width:0.633543" /><g
         id="g560"
         inkscape:label="ring"
         transform="matrix(0.63393505,0,0,0.6331516,-86.728462,-85.785424)"
         sodipodi:insensitive="true"><path
             d="M 0,0 C 2.3981952,1.3756411 4.8056744,2.7344467 7.2128906,4.0942383 21.830626,12.381147 21.830626,12.381147 27.025391,15.664551 c 4.554724,2.877511 9.234076,5.522491 13.921875,8.175781 6.469727,3.676853 12.915079,7.386294 19.3125,11.1875 7.096141,4.211362 14.289833,8.237575 21.5,12.25 7.366001,4.100621 14.632144,8.265648 21.765624,12.757813 5.8483,3.614723 11.90103,6.893843 17.89478,10.258789 6.20856,3.492602 12.35524,7.063764 18.44506,10.758789 5.10523,3.093904 10.28204,6.050432 15.47266,8.998047 5.57562,3.177798 11.09373,6.454145 16.62109,9.714843 3.48891,2.058017 6.98663,4.100457 10.48829,6.136717 3.4964,2.03522 6.97538,4.09452 10.4375,6.1875 3.6568,2.20324 7.34759,4.33377 11.0625,6.4375 8.43171,4.78416 16.76641,9.73579 25.09057,14.7041 7.21512,4.31177 7.21512,4.31177 14.52271,8.46387 24.32164,13.56833 42.1065,37.36634 50.13672,63.83203 l 0.61401,1.99707 c 3.72615,12.9024 3.98073,25.69969 3.92554,39.00415 -5.7e-4,1.92308 -2.5e-4,3.84615 8.8e-4,5.76923 5.7e-4,5.18299 -0.0111,10.36588 -0.0251,15.54885 -0.0126,5.43052 0.0802,10.86105 0.0778,16.29159 -0.006,10.26667 0.0338,20.57089 0.0137,30.83755 -0.0224,11.69535 0.023,23.39071 0.013,35.08609 -0.0209,24.24937 0.0943,48.01022 0.0497,72.05289 l -2.62742,1.27016 -2.98811,1.62533 -2.95793,1.60758 c -3.41999,1.88539 -6.76508,3.87241 -10.09602,5.90951 -6.16504,3.73605 -12.39184,7.34564 -18.66407,10.89844 -1.95311,1.11534 -3.88749,2.26447 -5.79687,3.45312 -2.22656,1.27344 -2.22656,1.27344 -4.22656,1.27344 l -0.01,-3.06875 c -0.0811,-24.68172 -0.17347,-49.36338 -0.27749,-74.04501 -0.05,-11.93603 -0.0965,-23.87204 -0.13435,-35.80811 -0.033,-10.40782 -0.0729,-20.81558 -0.12091,-31.22333 -0.0252,-5.50686 -0.047,-11.01369 -0.0606,-16.52059 -0.0129,-5.19233 -0.0351,-10.38455 -0.064,-15.57681 -0.009,-1.89693 -0.0147,-3.79387 -0.0168,-5.69081 -0.0343,-26.51532 -4.75167,-51.03853 -23.31578,-71.06659 l -2.26563,-2.54297 C 211.904,178.89812 194.11836,170.38754 178.00977,161.15283 l -2.21924,-1.27539 c -3.92059,-2.25273 -7.84882,-4.49177 -11.78076,-6.72461 -12.29213,-6.98318 -24.52277,-14.06772 -36.61329,-21.39551 -6.60756,-4.00062 -13.30134,-7.80377 -20.06884,-11.52685 -7.472202,-4.12752 -14.8346,-8.43626 -22.199954,-12.75073 -9.995991,-5.85215 -20.05093,-11.598032 -30.11792,-17.326908 -8.952744,-5.098584 -17.885987,-10.230649 -26.8125,-15.375 L 24.75293,72.793457 C 19.180141,69.577831 13.621798,66.342075 8.0964356,63.045654 -18.925851,46.954829 -43.83262,35.757406 -75.990234,42.152832 c -11.071992,2.819363 -20.991582,7.617164 -30.999996,13 l -2.10401,1.128906 c -9.98433,5.390763 -19.76365,11.117839 -29.51611,16.915039 -7.07295,4.200561 -14.1971,8.302528 -21.34839,12.36792 -6.6642,3.793508 -13.28976,7.65002 -19.90649,11.525635 -7.77314,4.551598 -15.58179,9.030068 -23.4375,13.437498 -9.09351,5.10587 -18.08094,10.37946 -27.03989,15.71655 -7.55203,4.49821 -15.13061,8.93981 -22.77261,13.28345 -6.16738,3.50582 -12.32268,7.02813 -18.4375,10.625 l -2.02417,1.19043 c -3.96373,2.34012 -7.90775,4.71099 -11.84302,7.09863 l -2.77515,1.67969 c -1.79363,1.08711 -3.5849,2.17813 -5.37353,3.27344 l -2.44898,1.48437 -2.17944,1.33057 c -1.79321,0.94287 -1.79321,0.94287 -3.79321,0.94287 14.6357,-63.32726 0.64477,-3.18994 15.10812,-65.78376 14.33024,-8.305918 14.37527,-8.259226 40.50516,-23.712332 3.40314,-2.144368 6.92958,-4.028404 10.47265,-5.929687 9.19184,-4.965566 18.1581,-10.303613 27.10157,-15.699219 5.84629,-3.52529 11.69932,-6.979063 17.72265,-10.195312 11.31669,-6.15193 22.47382,-12.609684 33.40235,-19.425782 13.20381,-8.145163 26.72857,-15.828286 40.28906,-23.363281 2.12775,-1.183716 4.24876,-2.37973096 6.35937,-3.59374997 6.7714,-3.84165413 13.68125,-6.75881313 21.039066,-9.29687503 l 3.269531,-1.128906 C -57.298518,-20.258277 -26.508497,-15.207739 0,0 Z"
             fill="#5bd3d1"
             id="path2"
             transform="translate(596.99023,152.84717)"
             sodipodi:nodetypes="ccccccccccscccccccccccccccccccccscscscccccccccccccccccccccccccccccccccccccccccc"
             inkscape:label="blue-right" /><g
             id="g559"
             inkscape:label="blue-left"><path
                 d="M 0,0 0.00723743,3.2834578 C 0.06620381,29.728485 0.14219148,56.173422 0.23571491,82.61835 c 0.0448401,12.788911 0.0842816,25.57779 0.11072064,38.36676 0.0230759,11.15538 0.0565799,22.31067 0.10226601,33.46598 0.0238036,5.8989 0.0426162,11.79771 0.0489123,17.69665 0.00611,5.56913 0.0263177,11.13804 0.0566616,16.70709 0.008687,2.02782 0.0125226,4.05568 0.0107327,6.08352 C 0.54720253,224.45832 4.5951361,253.33461 26.144531,275.25 33.766317,282.59027 41.950893,288.55389 51,294 l 3.253906,1.97656 C 58.157039,298.33834 62.077351,300.67082 66,303 l 2.595703,1.54248 c 10.006178,5.94183 20.030842,11.83967 30.150391,17.58643 3.442566,1.97957 6.852896,4.00885 10.253906,6.05859 14.1487,8.52662 28.37141,16.91643 42.73706,25.07251 8.0475,4.58455 16.01051,9.30812 23.97018,14.04266 7.36558,4.38088 14.75247,8.70667 22.21073,12.9278 3.41114,1.95849 6.77974,3.98298 10.14453,6.01953 6.82465,4.12743 13.74139,8.08232 20.677,12.01978 5.60644,3.19079 11.17113,6.44312 16.71045,9.74902 3.65801,2.18001 7.32784,4.33933 11.00317,6.48999 1.62773,0.95304 3.25299,1.91032 4.875,2.87305 C 271.95624,423.64281 281.85452,426.91792 294,429 l 13.72821,2.2894 c -0.37256,15.17932 -0.13064,30.07653 0,45 -6.07972,0.62367 -16.45187,-0.43785 -26.28636,-3.11117 -9.95409,-2.70582 -19.36695,-7.04372 -24.82466,-9.74854 -8.21881,-4.23306 -16.10324,-9.07585 -24.01026,-13.85742 -3.29973,-1.9901 -3.76699,-2.26957 -13.36059,-7.9126 -5.86752,-3.44773 -11.75721,-6.85672 -17.64917,-10.26245 -6.72761,-3.89002 -13.44566,-7.79628 -20.15967,-11.70972 l -2.99048,-1.74121 c -4.57804,-2.66998 -9.14313,-5.35762 -13.6814,-8.09473 -4.10705,-2.47221 -8.26029,-4.84123 -12.45312,-7.16406 -6.57413,-3.67064 -13.04384,-7.49019 -19.48828,-11.38281 C 122.43029,385.0282 111.92736,378.943 101.375,372.9375 94.734701,369.15841 88.139621,365.32109 81.603271,361.36523 71.342406,355.16768 60.928138,349.22308 50.5,343.3125 43.368588,339.24827 36.310182,335.06125 29.25,330.875 l -1.757568,-1.04208 C 23.659249,327.55925 19.829107,325.28052 16,323 l -2.876953,-1.7085 C -13.742557,305.27853 -35.333438,283.79575 -44,253 c -1.137299,-4.97953 -2.11351,-9.96903 -3,-15 l -0.530814,-2.68365 c -0.561177,-3.96657 -0.604286,-7.86249 -0.589441,-11.85843 l -0.0026,-2.56467 c -0.0016,-2.8282 0.0038,-5.65635 0.0093,-8.48456 2.82e-4,-2.03041 1.23e-4,-4.06083 -4.43e-4,-6.09125 -0.05218,-5.50774 -0.06854,-11.01546 -0.06157,-16.5232 0.0042,-3.80106 -0.03603,-7.5947 -0.0131,-11.39577 0.01181,-1.95649 -0.0312,-3.94264 0.0063,-5.89172 0.0013,-4.53756 -0.0095,-9.08735 -0.0196,-13.62195 -0.01792,-8.04867 -0.03076,-10.92534 -0.0047,-19.059 0.0058,-6.48367 -0.0541,-12.96244 -0.01552,-19.44786 0.02079,-3.49452 0.02928,-7.01139 0.0038,-10.50765 -0.01767,-2.42207 -0.01466,-4.85725 -0.01368,-7.29103 0.0044,-10.65437 -0.07277,-21.307565 -0.0292,-31.960564 0.06083,-14.87239 -0.04783,-29.60977 -0.03485,-44.54465 l 2.515531,-1.281077 2.94838,-1.605469 2.906845,-1.582031 C -35.399861,19.121848 -30.917033,16.565459 -26.4375,14 l 2.630859,-1.5 C -18.564261,9.5021237 -13.3693,6.4376548 -8.2111816,3.296875 -2.5899849,0 -2.5899849,0 0,0 Z"
                 fill="#5bd1d1"
                 transform="translate(234,465)"
                 id="path3"
                 sodipodi:nodetypes="cscsccccccccccccccccccccccscccccccccsccscccccccccccscscsscscccccccc" /><path
                 d="m 0,0 c -1.3467392,7.1356785 -2.9738118,14.163224 -4.8125,21.1875 l -0.7897949,3.032959 c -1.8578869,7.019122 -2.0875133,17.507046 -4.5295701,24.343225 -0.9677,3.01876 -0.745739,5.582553 -0.745739,5.582553 l -3.075033,1.951908 c -2.974939,1.674169 -5.948655,3.3505 -8.922363,5.026855 l -3.070312,1.726562 c -5.585302,3.150684 -10.966241,6.548997 -16.545479,9.813828 -14.188517,8.573885 -28.616243,16.713061 -43.021416,24.915665 -12.393547,7.068825 -24.684403,14.306125 -36.947753,21.597835 -7.29324,4.33429 -14.61259,8.60753 -22.02686,12.73175 -10.19701,5.67952 -20.20418,11.69091 -30.20068,17.71436 -7.04077,4.23969 -14.15432,8.33727 -21.3125,12.375 l -2.79297,1.62109 C -209.0103,169.43154 -219.58694,173.63477 -231,176.375 l -2.10205,0.5083 c -4.3795,0.97992 -14.37138,1.66959 -18.84292,1.61262 -0.59671,-36.91163 0.68946,-9.09051 -0.29506,-44.30718 -0.10197,-3.64767 21.03345,-0.37473 43.74003,-13.25124 l 2.64355,-1.47729 c 6.80521,-3.82035 13.54477,-7.74917 20.25489,-11.73365 5.4749,-3.25095 10.97575,-6.4572 16.47656,-9.66406 l 3.11572,-1.817383 c 6.20351,-3.616343 12.41588,-7.216953 18.63428,-10.807617 9.56514,-5.526595 19.07255,-11.149554 28.57666,-16.780273 5.51097,-3.263692 11.0264,-6.519824 16.54102,-9.777344 4.622426,-2.730876 9.243726,-5.463628 13.862789,-8.200196 8.545364,-5.060216 17.099916,-10.100132 25.707031,-15.054687 8.450978,-4.868596 16.814385,-9.877767 25.169678,-14.908447 8.207372,-4.939593 16.44478,-9.826216 24.702636,-14.6809085 l 2.588623,-1.5239258 2.2631841,-1.3293456 C -2.678918,0 -2.678918,0 0,0 Z"
                 fill="#844ABE"
                 transform="translate(793,763)"
                 id="path4"
                 style="fill:#5ad3d1"
                 sodipodi:nodetypes="ccccccccccccccccccsccscccccccccccc" /></g><path
             d="M 1.1529739,-0.45223924 C -5.0751327,24.777659 -13.31996,48.415707 -16.717529,61.83374 c -1.740869,6.609266 -1.740869,6.609266 -4.48169,9.427979 L -23.6875,72.6875 c -4.342945,2.670625 -7.993415,5.553927 -11.71875,9.027344 C -39.638941,83.79645 -41.393879,87.616091 -44.25,91.125 -51.520564,100.41684 -55.794329,109.67562 -59,121 l -0.544296,1.90439 c -1.675163,6.55704 -1.59004,12.77501 -1.412735,19.50577 0.02353,2.39515 0.04361,4.79034 0.06055,7.18554 0.03272,3.74346 0.08443,7.48185 0.19458,11.22388 0.55347,20.13496 0.55347,20.13496 -2.3974,24.98856 -3.322305,3.3197 -7.574825,4.63277 -11.900696,6.19186 -2.466414,1.29357 -4.834583,2.73757 -7.21875,4.17578 -1.208695,0.69338 -2.419643,1.38284 -3.632812,2.06836 l -1.817383,1.03052 L -89.5,200.3125 c -1.858789,1.05604 -3.717204,2.11274 -5.575317,3.16997 -1.663677,0.94623 -3.328328,1.89075 -4.993043,2.83516 -1.90148,1.0912 -3.78026,2.22336 -5.62891,3.40185 C -108,211 -108,211 -111,211 c -0.07,-11.27597 -0.12307,-22.5519 -0.15544,-33.82805 -0.0155,-5.23798 -0.0366,-10.4758 -0.0709,-15.7137 -0.033,-5.07047 -0.0506,-10.14081 -0.0583,-15.21138 -0.005,-1.91855 -0.0162,-3.83708 -0.0326,-5.75556 C -111.57389,109.17539 -104.95451,78.636506 -83,55 l 1.910156,-2.488281 c 2.289842,-2.75209 4.730344,-4.843602 7.527344,-7.074219 L -70.753906,43.183594 -68,41 -65.550781,38.972656 C -62.686203,36.757324 -59.718798,34.881264 -56.625,33 l 3.273438,-2 c 2.759338,-1.646598 5.534899,-3.256012 8.328613,-4.843262 C -40.57989,23.616162 -36.168956,21.019686 -31.75,18.4375 -21.181208,12.266406 -9.4436971,5.6708373 1.1529739,-0.45223924 Z"
             fill="#8446c1"
             transform="translate(297,262)"
             id="path6"
             sodipodi:nodetypes="cccccccccccccccccccccccccccccccccccc"
             inkscape:label="violet-left" /><path
             d="M 0.34877789,-0.45341126 C 0.41922811,13.482055 0.57637398,27.76627 0.32982547,41.771633 c 0.0155931,6.472274 -0.007107,12.977408 0.0708818,19.451512 0.0749267,6.219925 0.0854601,12.548773 -0.11607555,18.77098 0.11013637,2.62011 0.0860032,4.751924 0.0325584,7.127838 C 0.50464702,115.58415 -4.6581016,142.91155 -24,165 l -2.390625,2.82422 C -36.844165,179.90478 -49.007598,188.45788 -63,196 c -3.826813,2.14962 -7.621096,4.35033 -11.375,6.625 -1.874488,1.12585 -3.749583,2.25069 -5.625,3.375 l -2.079102,1.24805 c -2.3042,1.38034 -4.612212,2.75413 -6.920898,4.12695 l -2.286621,1.37354 -2.150879,1.2749 -1.933594,1.15381 c -1.766512,0.85715 -1.302092,0.63354 -3.680508,1.68279 1.001368,-5.786 2.502454,-11.76356 3.989102,-17.23504 1.749822,-6.20751 3.732841,-12.26781 5.0625,-18.625 4.908748,-21.98209 4.908748,-21.98209 12.230469,-27.46875 C -73.608109,149.9302 -70.393103,145.30734 -67,141 l 1.628906,-1.92969 C -51.067134,121.5314 -47.55621,99.546216 -47.644531,77.5625 l -0.0063,-2.159773 c -0.02787,-6.647575 -0.115147,-13.293726 -0.256181,-19.939836 -0.07555,-3.683933 -0.102233,-7.36566 -0.09928,-11.050324 -0.0087,-1.384427 -0.03612,-2.76888 -0.08341,-4.152527 -0.361679,-10.68444 -0.361679,-10.68444 3.2653,-14.621841 C -42.286801,23.842143 -39.775756,22.391638 -37,21 c 1.14192,-0.72677 2.276345,-1.465633 3.398438,-2.222656 C -27.42456,14.959275 -21.20593,11.464107 -14.65625,8.3242188 -10.826049,6.4147507 -7.2987222,4.201063 -3.75,1.8125 -1,0 -0.65122211,-0.45341126 0.34877789,-0.45341126 Z"
             fill="#874ac4"
             transform="translate(895,592)"
             id="path7"
             sodipodi:nodetypes="ccsccccccccccccccccccccccccccccc"
             inkscape:label="violet-right" /></g><path
         d="m 200.71961,170.27494 c -17.35964,0.1837 -30.0689,-0.35515 -40.44604,4.73937 a 25.915271,22.998809 0 0 0 -11.59149,12.19746 c -2.27691,5.35169 -3.07727,11.75657 -3.07727,19.80249 v 97.97148 c 0,8.05816 0.80036,14.43856 3.07727,19.80249 2.2631,5.37619 6.38912,9.67468 11.59149,12.22195 10.37714,5.09451 23.0864,4.53117 40.44604,4.71487 H 311.2804 c 17.35964,-0.1837 30.06888,0.3674 40.45983,-4.71487 5.18858,-2.53502 9.31459,-6.85801 11.59149,-12.22195 2.2631,-5.36394 3.06347,-11.75658 3.06347,-19.80249 v -73.47862 c 0,-8.05815 -0.80037,-14.43853 -3.07727,-19.80248 -0.27598,-0.67356 -0.66237,-1.27364 -1.02115,-1.88596 l -0.37258,-0.69804 a 25.363295,22.508951 0 0 0 -10.18396,-9.63795 c -10.39095,-5.09451 -23.10019,-4.53118 -40.45983,-4.71487 h -41.93639 l -27.90237,-24.49288 h -40.69443 z m 0.16559,12.24644 h 34.91248 l 24.34214,21.38229 -17.48384,15.35702 h -41.93637 c -17.35964,0.18371 -30.0689,-0.36739 -40.45984,4.71488 -0.30359,0.14696 -0.55197,0.36739 -0.85556,0.5266 v -17.48791 c 0,-7.24989 0.85556,-12.31991 2.2079,-15.50399 1.35234,-3.18407 2.80128,-4.54343 5.34037,-5.78031 5.05058,-2.48603 16.49028,-3.02488 33.93272,-3.20858 z m 75.33092,24.49288 h 34.87108 c 17.44244,0.18369 28.86835,0.73479 33.94652,3.20857 2.52529,1.22464 3.97422,2.59624 5.32656,5.78031 1.35235,3.18408 2.23551,8.2541 2.23551,15.50399 v 73.47862 c 0,7.24989 -0.86936,12.31992 -2.2079,15.50398 -1.35235,3.18408 -2.80128,4.54344 -5.34037,5.78033 -5.05058,2.47378 -16.46268,3.02487 -33.84993,3.20856 H 200.8024 c -17.38724,-0.18369 -28.79934,-0.73478 -33.84992,-3.20856 -2.53909,-1.22464 -4.00183,-2.59625 -5.34037,-5.78033 -1.33854,-3.18406 -2.2079,-8.25409 -2.2079,-15.50398 v -48.98574 c 0,-7.2499 0.88316,-12.31992 2.2355,-15.504 1.35234,-3.18407 2.80128,-4.54342 5.34037,-5.78031 5.06438,-2.48603 16.49028,-3.02487 33.93272,-3.20857 h 47.40094 z"
         style="line-height:normal;font-variant-ligatures:none;font-variant-position:normal;font-variant-caps:normal;font-variant-numeric:normal;font-variant-alternates:normal;font-feature-settings:normal;text-indent:0;text-align:start;text-decoration-line:none;text-decoration-style:solid;text-decoration-color:#000000;text-transform:none;shape-padding:0;stroke-width:12.9998;fill:#f6f6f6"
         color="#000000"
         font-weight="400"
         font-family="sans-serif"
         white-space="normal"
         overflow="visible"
         fill="#808080"
         id="path1-35"
         inkscape:label="project-icon" /></svg>
